<?xml version="1.0" encoding="UTF-8" standalone="no"?>
<!-- Created with Inkscape (http://www.inkscape.org/) -->

<svg
   xmlns:osb="http://www.openswatchbook.org/uri/2009/osb"
   xmlns:dc="http://purl.org/dc/elements/1.1/"
   xmlns:cc="http://creativecommons.org/ns#"
   xmlns:rdf="http://www.w3.org/1999/02/22-rdf-syntax-ns#"
   xmlns:svg="http://www.w3.org/2000/svg"
   xmlns="http://www.w3.org/2000/svg"
   xmlns:xlink="http://www.w3.org/1999/xlink"
   xmlns:sodipodi="http://sodipodi.sourceforge.net/DTD/sodipodi-0.dtd"
   xmlns:inkscape="http://www.inkscape.org/namespaces/inkscape"
   width="43.390823mm"
   height="112.22558mm"
   viewBox="0 0 153.74701 397.64969"
   id="svg2"
   version="1.1"
   inkscape:version="0.91 r13725"
   sodipodi:docname="claimchain.svg"
   inkscape:export-filename="/home/bogdan/Workspace/claimchain-site/claimchain.png"
   inkscape:export-xdpi="90"
   inkscape:export-ydpi="90">
  <sodipodi:namedview
     id="base"
     pagecolor="#ffffff"
     bordercolor="#666666"
     borderopacity="1.0"
     inkscape:pageopacity="0.0"
     inkscape:pageshadow="2"
     inkscape:zoom="1.4"
     inkscape:cx="62.785282"
     inkscape:cy="200.85281"
     inkscape:document-units="px"
     inkscape:current-layer="layer1"
     showgrid="true"
     showguides="false"
     inkscape:window-width="1920"
     inkscape:window-height="1056"
     inkscape:window-x="0"
     inkscape:window-y="24"
     inkscape:window-maximized="1"
     fit-margin-top="0"
     fit-margin-left="0"
     fit-margin-right="0"
     fit-margin-bottom="0">
    <inkscape:grid
       id="grid4136"
       type="xygrid"
       originx="-295.93219"
       originy="-291.86738" />
  </sodipodi:namedview>
  <defs
     id="defs4">
    <linearGradient
       inkscape:collect="always"
       id="linearGradient8994-4">
      <stop
         style="stop-color:#000000;stop-opacity:1;"
         offset="0"
         id="stop9010" />
      <stop
         style="stop-color:#000000;stop-opacity:0;"
         offset="1"
         id="stop9012" />
    </linearGradient>
    <linearGradient
       osb:paint="solid"
       id="linearGradient8976">
      <stop
         id="stop8978"
         offset="0"
         style="stop-color:#000000;stop-opacity:1;" />
    </linearGradient>
    <marker
       inkscape:isstock="true"
       style="overflow:visible"
       id="DiamondSend"
       refX="0"
       refY="0"
       orient="auto"
       inkscape:stockid="DiamondSend">
      <path
         transform="matrix(0.2,0,0,0.2,-1.2,0)"
         style="fill:#000000;fill-opacity:1;fill-rule:evenodd;stroke:#000000;stroke-width:1pt;stroke-opacity:1"
         d="M 0,-7.0710768 -7.0710894,0 0,7.0710589 7.0710462,0 0,-7.0710768 Z"
         id="path4264"
         inkscape:connector-curvature="0" />
    </marker>
    <marker
       inkscape:isstock="true"
       style="overflow:visible"
       id="marker5565"
       refX="0"
       refY="0"
       orient="auto"
       inkscape:stockid="Arrow1Mend">
      <path
         transform="matrix(-0.4,0,0,-0.4,-4,0)"
         style="fill:#000000;fill-opacity:1;fill-rule:evenodd;stroke:#000000;stroke-width:1pt;stroke-opacity:1"
         d="M 0,0 5,-5 -12.5,0 5,5 0,0 Z"
         id="path5567"
         inkscape:connector-curvature="0" />
    </marker>
    <marker
       inkscape:isstock="true"
       style="overflow:visible"
       id="marker5495"
       refX="0"
       refY="0"
       orient="auto"
       inkscape:stockid="Arrow1Lend">
      <path
         transform="matrix(-0.8,0,0,-0.8,-10,0)"
         style="fill:#000000;fill-opacity:1;fill-rule:evenodd;stroke:#000000;stroke-width:1pt;stroke-opacity:1"
         d="M 0,0 5,-5 -12.5,0 5,5 0,0 Z"
         id="path5497"
         inkscape:connector-curvature="0" />
    </marker>
    <marker
       inkscape:isstock="true"
       style="overflow:visible"
       id="SemiCircleOut"
       refX="0"
       refY="0"
       orient="auto"
       inkscape:stockid="SemiCircleOut">
      <path
         transform="matrix(0.6,0,0,0.6,4.2752958,0.4580676)"
         style="fill:#000000;fill-opacity:1;fill-rule:evenodd;stroke:#000000;stroke-width:1pt;stroke-opacity:1"
         d="m -2.5,-0.80913858 c 0,2.75999998 -2.24,4.99999998 -5,4.99999998 l 0,-10 c 2.76,0 5,2.24 5,5.00000002 z"
         id="path4342"
         inkscape:connector-curvature="0" />
    </marker>
    <marker
       inkscape:isstock="true"
       style="overflow:visible"
       id="EmptyTriangleOutL"
       refX="0"
       refY="0"
       orient="auto"
       inkscape:stockid="EmptyTriangleOutL">
      <path
         transform="matrix(0.8,0,0,0.8,-4.8,0)"
         style="fill:#ffffff;fill-rule:evenodd;stroke:#000000;stroke-width:1pt;stroke-opacity:1"
         d="m 5.77,0 -8.65,5 0,-10 8.65,5 z"
         id="path4321"
         inkscape:connector-curvature="0" />
    </marker>
    <marker
       inkscape:isstock="true"
       style="overflow:visible"
       id="TriangleOutL"
       refX="0"
       refY="0"
       orient="auto"
       inkscape:stockid="TriangleOutL">
      <path
         transform="scale(0.8,0.8)"
         style="fill:#000000;fill-opacity:1;fill-rule:evenodd;stroke:#000000;stroke-width:1pt;stroke-opacity:1"
         d="m 5.77,0 -8.65,5 0,-10 8.65,5 z"
         id="path4303"
         inkscape:connector-curvature="0" />
    </marker>
    <marker
       inkscape:isstock="true"
       style="overflow:visible"
       id="Arrow1Mend"
       refX="0"
       refY="0"
       orient="auto"
       inkscape:stockid="Arrow1Mend">
      <path
         transform="matrix(-0.4,0,0,-0.4,-4,0)"
         style="fill:#000000;fill-opacity:1;fill-rule:evenodd;stroke:#000000;stroke-width:1pt;stroke-opacity:1"
         d="M 0,0 5,-5 -12.5,0 5,5 0,0 Z"
         id="path4170"
         inkscape:connector-curvature="0" />
    </marker>
    <marker
       inkscape:isstock="true"
       style="overflow:visible"
       id="Arrow1Lend"
       refX="0"
       refY="0"
       orient="auto"
       inkscape:stockid="Arrow1Lend">
      <path
         transform="matrix(-0.8,0,0,-0.8,-10,0)"
         style="fill:#000000;fill-opacity:1;fill-rule:evenodd;stroke:#000000;stroke-width:1pt;stroke-opacity:1"
         d="M 0,0 5,-5 -12.5,0 5,5 0,0 Z"
         id="path4164"
         inkscape:connector-curvature="0" />
    </marker>
    <marker
       inkscape:isstock="true"
       style="overflow:visible"
       id="Arrow1Lstart"
       refX="0"
       refY="0"
       orient="auto"
       inkscape:stockid="Arrow1Lstart">
      <path
         transform="matrix(0.8,0,0,0.8,10,0)"
         style="fill:#000000;fill-opacity:1;fill-rule:evenodd;stroke:#000000;stroke-width:1pt;stroke-opacity:1"
         d="M 0,0 5,-5 -12.5,0 5,5 0,0 Z"
         id="path4161"
         inkscape:connector-curvature="0" />
    </marker>
    <marker
       inkscape:isstock="true"
       style="overflow:visible"
       id="Arrow2Mstart"
       refX="0"
       refY="0"
       orient="auto"
       inkscape:stockid="Arrow2Mstart">
      <path
         transform="scale(0.6,0.6)"
         d="M 8.7185878,4.0337352 -2.2072895,0.01601326 8.7185884,-4.0017078 c -1.7454984,2.3720609 -1.7354408,5.6174519 -6e-7,8.035443 z"
         style="fill:#000000;fill-opacity:1;fill-rule:evenodd;stroke:#000000;stroke-width:0.625;stroke-linejoin:round;stroke-opacity:1"
         id="path4185"
         inkscape:connector-curvature="0" />
    </marker>
    <marker
       inkscape:isstock="true"
       style="overflow:visible"
       id="Arrow2Lstart"
       refX="0"
       refY="0"
       orient="auto"
       inkscape:stockid="Arrow2Lstart">
      <path
         transform="matrix(1.1,0,0,1.1,1.1,0)"
         d="M 8.7185878,4.0337352 -2.2072895,0.01601326 8.7185884,-4.0017078 c -1.7454984,2.3720609 -1.7354408,5.6174519 -6e-7,8.035443 z"
         style="fill:#000000;fill-opacity:1;fill-rule:evenodd;stroke:#000000;stroke-width:0.625;stroke-linejoin:round;stroke-opacity:1"
         id="path4179"
         inkscape:connector-curvature="0" />
    </marker>
    <marker
       inkscape:isstock="true"
       style="overflow:visible"
       id="TriangleOutL-7"
       refX="0"
       refY="0"
       orient="auto"
       inkscape:stockid="TriangleOutL">
      <path
         transform="scale(0.8,0.8)"
         style="fill:none;fill-opacity:1;fill-rule:evenodd;stroke:#000000;stroke-width:1pt;stroke-opacity:1"
         d="m 5.77,0 -8.65,5 0,-10 8.65,5 z"
         id="path4303-4"
         inkscape:connector-curvature="0" />
    </marker>
    <linearGradient
       gradientUnits="userSpaceOnUse"
       y2="412.36221"
       x2="290"
       y1="367.36221"
       x1="290"
       id="linearGradient9000"
       xlink:href="#linearGradient8994-4"
       inkscape:collect="always"
       gradientTransform="translate(79.954295,343.70461)" />
  </defs>
  <metadata
     id="metadata7">
    <rdf:RDF>
      <cc:Work
         rdf:about="">
        <dc:format>image/svg+xml</dc:format>
        <dc:type
           rdf:resource="http://purl.org/dc/dcmitype/StillImage" />
        <dc:title />
      </cc:Work>
    </rdf:RDF>
  </metadata>
  <g
     id="layer1"
     inkscape:groupmode="layer"
     inkscape:label="Layer 1"
     transform="translate(-295.93219,-362.84515)">
    <rect
       y="364.34515"
       x="297.78931"
       height="139.93251"
       width="150.03403"
       id="rect5943"
       style="fill:#ffffff;fill-opacity:1;stroke:#000000;stroke-width:3;stroke-linecap:round;stroke-linejoin:miter;stroke-miterlimit:4;stroke-dasharray:none;stroke-dashoffset:0;stroke-opacity:1" />
    <rect
       y="564.54083"
       x="297.96921"
       height="140.68753"
       width="150.03143"
       id="rect5943-8"
       style="fill:#ffffff;fill-opacity:1;stroke:#000000;stroke-width:3;stroke-linecap:round;stroke-linejoin:miter;stroke-miterlimit:4;stroke-dasharray:none;stroke-dashoffset:0;stroke-opacity:1" />
    <path
       sodipodi:nodetypes="cc"
       inkscape:connector-curvature="0"
       id="path4155-3"
       d="m 375.03186,706.38769 0,54.10714"
       style="fill:none;fill-rule:evenodd;stroke:url(#linearGradient9000);stroke-width:3;stroke-miterlimit:4;stroke-dasharray:none" />
    <path
       style="fill:#00cfff;fill-opacity:1"
       d="m 339.08727,451.98038 c -0.1259,-0.0135 -0.50586,-0.0762 -0.84437,-0.13931 -3.66916,-0.68434 -6.47518,-3.52964 -7.10343,-7.20285 -0.10526,-0.61541 -0.12214,-1.90347 -0.0322,-2.45771 0.0325,-0.20064 0.0471,-0.37688 0.0323,-0.39166 -0.0148,-0.0148 -0.26693,0.006 -0.56034,0.0472 -0.8436,0.11718 -2.19333,0.0909 -2.89305,-0.0563 -1.54758,-0.32563 -2.83431,-1.04425 -3.95041,-2.20622 -1.00528,-1.04661 -1.66254,-2.24485 -1.92822,-3.5153 -0.12587,-0.6019 -0.21981,-1.77066 -0.18035,-2.24378 0.0788,-0.94544 0.29839,-1.96159 0.5456,-2.52527 0.4962,-1.13141 1.36522,-2.2145 2.40801,-3.00117 0.51183,-0.38612 1.60385,-0.95654 2.23176,-1.16577 1.08878,-0.3628 2.4715,-0.4896 3.49739,-0.32072 0.30268,0.0498 0.59238,0.10673 0.64378,0.12645 0.0831,0.0319 0.0935,-0.0364 0.0936,-0.61403 2.9e-4,-1.46019 0.19448,-2.94434 0.49555,-3.78793 0.70417,-1.97298 2.40634,-3.89653 4.3096,-4.87007 1.26475,-0.64693 2.41247,-0.91218 3.95007,-0.91288 1.08055,-4.9e-4 1.62702,0.0722 2.5465,0.33876 1.84803,0.53574 3.48626,1.64341 4.62024,3.12391 1.18001,1.54061 1.75781,3.50116 1.68452,5.71582 -0.047,1.41893 -0.30652,2.46014 -0.89283,3.58157 -0.35645,0.68176 -0.58641,1.02256 -1.14487,1.6967 -0.25389,0.30649 -0.46162,0.56863 -0.46162,0.58254 0,0.0842 1.32475,-0.54623 2.53632,-1.20709 0.58248,-0.31772 0.68983,-0.35858 0.77217,-0.29392 0.0526,0.0413 0.27706,0.23141 0.49878,0.42245 0.7056,0.60795 1.29316,1.05681 1.34304,1.02598 0.0266,-0.0164 0.0655,-0.11326 0.0864,-0.21518 0.0696,-0.33844 0.47551,-1.10521 0.71664,-1.35367 0.13074,-0.13472 0.38334,-0.31323 0.56134,-0.39667 0.28253,-0.13246 0.39629,-0.15173 0.89587,-0.15173 0.54182,0 0.59582,0.0113 1.01556,0.21169 0.81513,0.38923 1.29633,1.03113 1.34652,1.79619 l 0.0266,0.40559 4.98592,0.0359 c 2.74225,0.0197 17.8848,0.0197 33.65011,-1.7e-4 l 28.66419,-0.036 -0.033,0.55307 c -0.0275,0.46049 -0.0191,0.55308 0.0501,0.55308 0.20767,0 0.48608,-0.18695 0.78887,-0.5297 0.50693,-0.57383 1.10122,-0.84163 1.8708,-0.84302 0.42864,-7.7e-4 1.12749,0.16146 1.48816,0.34547 0.65098,0.3321 1.22286,1.16618 1.37208,2.00113 0.21474,1.20165 -0.39555,2.34206 -1.55804,2.91141 -1.18647,0.5811 -2.20849,0.40243 -3.21267,-0.56163 -0.35451,-0.34034 -0.52163,-0.46243 -0.63296,-0.46243 l -0.15128,0 0,0.52275 0,0.52274 -2.13421,-0.0419 c -1.17381,-0.0231 -2.56437,-0.0231 -3.09013,-5e-5 l -0.95592,0.0419 6.3e-4,0.66474 c 5.7e-4,0.3656 0.0171,0.76423 0.0372,0.88584 l 0.0365,0.22111 3.09589,-0.0142 c 1.70275,-0.008 3.13452,-0.0107 3.18173,-0.006 0.0744,0.007 0.0838,0.21496 0.0704,1.56704 -0.008,0.85766 -0.0263,1.58972 -0.0395,1.62679 -0.0237,0.0662 -1.3745,0.53345 -1.54227,0.53345 -0.0528,0 -0.0965,0.0715 -0.1138,0.18598 -0.0739,0.48877 -0.083,0.64122 -0.0534,0.8902 l 0.032,0.2686 0.85194,0.27356 0.85195,0.27357 -5.8e-4,3.10269 c 0,1.70647 -0.0172,3.35761 -0.0378,3.66918 l -0.0375,0.5665 -2.74106,-0.0311 c -1.50759,-0.0171 -2.75881,-0.0489 -2.78051,-0.0707 -0.0217,-0.0218 -0.0406,-1.0095 -0.042,-2.19491 -10e-4,-1.1854 -0.0233,-2.34198 -0.0487,-2.57016 l -0.0462,-0.41488 -1.18708,0 -1.18708,0 -0.0372,0.72961 c -0.0205,0.40129 -0.0373,1.57296 -0.0374,2.60372 l 0,1.87411 -1.99487,0 c -1.09719,0 -2.11818,-0.0169 -2.2689,-0.0376 l -0.27401,-0.0376 0.041,-2.1906 c 0.0225,-1.20483 0.0237,-2.36604 0.003,-2.58047 l -0.0384,-0.38986 -0.95255,0.0122 c -0.52391,0.007 -1.08699,0.0132 -1.2513,0.0143 l -0.29875,0.002 -0.016,2.59899 c -0.009,1.42945 -0.0289,2.60756 -0.0446,2.61803 -0.0157,0.0105 -1.27753,0.006 -2.804,-0.01 l -2.77539,-0.0286 -0.0184,-1.11588 c -0.0323,-1.96293 0.053,-6.18697 0.12534,-6.207 0.0356,-0.01 0.41656,-0.12773 0.84662,-0.26196 l 0.78192,-0.24404 0.0355,-0.3774 c 0.0195,-0.20758 0.0147,-0.49253 -0.0107,-0.63324 l -0.0461,-0.25584 -0.77269,-0.26217 c -0.42497,-0.14419 -0.80421,-0.28166 -0.84276,-0.30548 -0.0525,-0.0325 -0.0701,-0.43554 -0.0701,-1.60949 l 0,-1.56618 0.32904,-0.0412 c 0.18097,-0.0226 1.60724,-0.0273 3.16948,-0.0103 l 2.84043,0.0309 0.0345,-0.20845 c 0.0437,-0.26401 0.0448,-1.37048 0.002,-1.5315 l -0.0326,-0.12134 -11.96951,-0.0392 c -26.03015,-0.0852 -40.1464,-0.14886 -40.61041,-0.18322 l -0.48641,-0.036 -0.007,0.36499 c -0.0105,0.53307 -0.19227,0.95681 -0.59531,1.38767 -0.91784,0.98117 -2.36537,1.0362 -3.27698,0.12459 -0.3288,-0.3288 -0.46143,-0.57526 -0.55577,-1.03282 -0.0389,-0.18884 -0.0939,-0.40432 -0.12222,-0.47885 -0.0512,-0.13504 -0.0524,-0.13463 -0.3221,0.11591 -0.24995,0.23217 -1.3212,1.12269 -1.55995,1.29676 -0.0906,0.066 -0.21624,0.0168 -1.00938,-0.39531 -0.49825,-0.25891 -1.07329,-0.55701 -1.27787,-0.66245 -0.39284,-0.20248 -0.97497,-0.43662 -1.00668,-0.4049 -0.0103,0.0104 0.163,0.23657 0.3852,0.50272 0.2222,0.26616 0.52677,0.66438 0.67681,0.88495 1.2266,1.8031 1.6959,4.35482 1.22594,6.66586 -0.50633,2.48995 -2.23382,4.77159 -4.54307,6.0004 -0.66479,0.35375 -1.73159,0.71702 -2.46066,0.8379 -0.54458,0.0903 -1.94495,0.1539 -2.37482,0.10786 z m 2.19929,-3.39434 c 1.59163,-0.46471 2.97981,-1.64059 3.66278,-3.10262 0.86052,-1.84213 0.58392,-4.14018 -0.68929,-5.72662 -0.82188,-1.0241 -1.8099,-1.63475 -3.2201,-1.99023 l -0.62242,-0.1569 0.0102,-0.59559 c 0.006,-0.32757 -0.007,-0.6398 -0.0275,-0.69384 -0.0771,-0.20099 -0.26937,-0.0982 -0.76256,0.40765 -0.57188,0.58657 -0.8033,0.69581 -1.47409,0.69581 -0.7534,0 -1.34864,-0.34711 -1.80436,-1.05219 -0.35982,-0.55672 -0.51936,-1.14305 -0.52336,-1.92349 -0.007,-1.45531 0.50565,-2.47249 1.49339,-2.96046 0.40049,-0.19786 0.47392,-0.21505 0.8968,-0.20994 0.62727,0.008 0.8188,0.10462 1.4129,0.71593 0.4777,0.49154 0.67115,0.60255 0.77033,0.44207 0.0227,-0.0367 0.0371,-0.32967 0.0319,-0.65101 -0.007,-0.40796 0.0122,-0.6021 0.0623,-0.64343 0.0394,-0.0326 0.23899,-0.10134 0.44357,-0.15287 0.59919,-0.15092 1.09161,-0.32104 1.45922,-0.50411 1.58061,-0.78715 2.72796,-2.34033 3.0071,-4.07075 0.10847,-0.67237 0.0437,-1.77932 -0.14016,-2.39728 -0.4463,-1.49964 -1.51122,-2.77699 -2.89555,-3.47319 -2.84588,-1.43123 -6.2076,-0.23657 -7.61414,2.70586 -0.36466,0.76285 -0.47263,1.25718 -0.47125,2.15769 0.001,0.64958 0.0252,0.8634 0.15201,1.34344 0.19266,0.72928 0.61586,1.59513 1.07662,2.20276 0.52019,0.68599 0.52302,0.69 0.49852,0.70672 -0.073,0.0498 -0.86334,0.72631 -1.45217,1.24299 -0.37809,0.33176 -0.88842,0.76286 -1.13406,0.95801 l -0.44662,0.35482 -0.33831,-0.42054 c -0.62068,-0.77155 -1.49936,-1.35232 -2.34499,-1.54994 -0.54394,-0.12711 -1.48203,-0.11466 -2.03663,0.027 -2.53524,0.64774 -3.92183,3.35723 -2.88654,5.64051 0.74404,1.64095 2.52727,2.75017 4.24263,2.63904 1.01293,-0.0656 1.80093,-0.47336 2.78727,-1.4422 l 0.6475,-0.63602 1.48387,1.30784 1.48387,1.30783 -0.28526,0.34276 c -1.07387,1.29039 -1.52834,2.49873 -1.47244,3.91487 0.034,0.86138 0.18615,1.47412 0.55413,2.23176 0.77031,1.58599 2.1774,2.7086 3.8659,3.0843 0.59616,0.13265 2.02693,0.0905 2.59897,-0.0765 z"
       id="path11264"
       inkscape:connector-curvature="0" />
    <path
       sodipodi:nodetypes="cc"
       inkscape:connector-curvature="0"
       id="path4155-3-2"
       d="m 374.73726,505.20346 -0.12627,52.55208"
       style="fill:#000000;fill-opacity:1;fill-rule:evenodd;stroke:#000000;stroke-width:3;stroke-miterlimit:4;stroke-dasharray:none;stroke-opacity:1" />
    <path
       style="fill:#000000;fill-opacity:1;fill-rule:evenodd;stroke:none;stroke-width:1px;stroke-linecap:butt;stroke-linejoin:miter;stroke-opacity:1"
       d="m 374.49386,563.09431 5,-10 -10,0 5,10 0,0"
       id="path11448"
       inkscape:connector-curvature="0"
       sodipodi:nodetypes="ccccc" />
    <path
       style="fill:#57d7c0;fill-opacity:1"
       d="m 338.73013,653.19467 c -0.1259,-0.0135 -0.50586,-0.0762 -0.84437,-0.13931 -3.66916,-0.68434 -6.47518,-3.52964 -7.10343,-7.20285 -0.10526,-0.61541 -0.12214,-1.90347 -0.0322,-2.45771 0.0325,-0.20063 0.0471,-0.37688 0.0323,-0.39165 -0.0148,-0.0148 -0.26693,0.006 -0.56034,0.0472 -0.8436,0.11718 -2.19333,0.0909 -2.89305,-0.0563 -1.54758,-0.32564 -2.83431,-1.04425 -3.95041,-2.20623 -1.00528,-1.0466 -1.66254,-2.24484 -1.92822,-3.5153 -0.12587,-0.60189 -0.21981,-1.77065 -0.18035,-2.24378 0.0788,-0.94543 0.29839,-1.96158 0.5456,-2.52527 0.4962,-1.13141 1.36522,-2.21449 2.40801,-3.00116 0.51183,-0.38612 1.60385,-0.95654 2.23176,-1.16577 1.08878,-0.3628 2.4715,-0.4896 3.49739,-0.32072 0.30268,0.0498 0.59238,0.10673 0.64378,0.12645 0.0831,0.0319 0.0935,-0.0364 0.0936,-0.61404 2.9e-4,-1.46018 0.19448,-2.94433 0.49555,-3.78792 0.70417,-1.97298 2.40634,-3.89653 4.3096,-4.87007 1.26475,-0.64694 2.41247,-0.91218 3.95007,-0.91288 1.08055,-4.9e-4 1.62702,0.0722 2.5465,0.33876 1.84803,0.53573 3.48626,1.64341 4.62024,3.12391 1.18001,1.54061 1.75781,3.50115 1.68452,5.71581 -0.047,1.41893 -0.30652,2.46015 -0.89283,3.58158 -0.35645,0.68175 -0.58641,1.02255 -1.14487,1.6967 -0.25389,0.30648 -0.46162,0.56863 -0.46162,0.58254 0,0.0842 1.32475,-0.54624 2.53632,-1.2071 0.58248,-0.31772 0.68983,-0.35857 0.77217,-0.29391 0.0526,0.0413 0.27706,0.23141 0.49878,0.42245 0.7056,0.60794 1.29316,1.0568 1.34304,1.02598 0.0266,-0.0164 0.0655,-0.11326 0.0864,-0.21519 0.0696,-0.33844 0.47551,-1.1052 0.71664,-1.35367 0.13074,-0.13472 0.38334,-0.31322 0.56134,-0.39667 0.28253,-0.13245 0.39629,-0.15172 0.89587,-0.15172 0.54182,0 0.59582,0.0112 1.01556,0.21169 0.81513,0.38923 1.29633,1.03113 1.34652,1.79619 l 0.0266,0.40559 4.98592,0.0359 c 2.74225,0.0197 17.8848,0.0197 33.65011,-1.7e-4 l 28.66419,-0.036 -0.033,0.55307 c -0.0275,0.46049 -0.0191,0.55307 0.0501,0.55307 0.20767,0 0.48608,-0.18694 0.78887,-0.52969 0.50693,-0.57384 1.10122,-0.84163 1.8708,-0.84302 0.42864,-7.7e-4 1.12749,0.16146 1.48816,0.34546 0.65098,0.3321 1.22286,1.16618 1.37208,2.00114 0.21474,1.20165 -0.39555,2.34206 -1.55804,2.91141 -1.18647,0.5811 -2.20849,0.40243 -3.21267,-0.56163 -0.35451,-0.34034 -0.52163,-0.46244 -0.63296,-0.46244 l -0.15128,0 0,0.52275 0,0.52275 -2.13421,-0.0419 c -1.17381,-0.0231 -2.56437,-0.0231 -3.09013,-6e-5 l -0.95592,0.0419 6.3e-4,0.66474 c 5.7e-4,0.36561 0.0171,0.76424 0.0372,0.88585 l 0.0365,0.22111 3.09589,-0.0142 c 1.70275,-0.008 3.13452,-0.0107 3.18173,-0.007 0.0744,0.007 0.0838,0.21496 0.0704,1.56703 -0.008,0.85767 -0.0263,1.58973 -0.0395,1.6268 -0.0237,0.0662 -1.3745,0.53345 -1.54227,0.53345 -0.0528,0 -0.0965,0.0715 -0.1138,0.18598 -0.0739,0.48877 -0.083,0.64122 -0.0534,0.8902 l 0.032,0.2686 0.85194,0.27356 0.85195,0.27357 -5.8e-4,3.10269 c 0,1.70647 -0.0172,3.35761 -0.0378,3.66918 l -0.0375,0.5665 -2.74106,-0.0311 c -1.50759,-0.0171 -2.75881,-0.0489 -2.78051,-0.0707 -0.0217,-0.0218 -0.0406,-1.0095 -0.042,-2.19491 -10e-4,-1.1854 -0.0233,-2.34198 -0.0487,-2.57016 l -0.0462,-0.41488 -1.18708,0 -1.18708,0 -0.0372,0.72961 c -0.0205,0.40129 -0.0373,1.57296 -0.0374,2.60372 l 0,1.87411 -1.99487,0 c -1.09719,0 -2.11818,-0.0169 -2.2689,-0.0376 l -0.27401,-0.0376 0.041,-2.1906 c 0.0225,-1.20483 0.0237,-2.36604 0.003,-2.58047 l -0.0384,-0.38986 -0.95255,0.0122 c -0.52391,0.007 -1.08699,0.0132 -1.2513,0.0143 l -0.29875,0.002 -0.016,2.59899 c -0.009,1.42945 -0.0289,2.60756 -0.0446,2.61803 -0.0157,0.0105 -1.27753,0.006 -2.804,-0.01 l -2.77539,-0.0286 -0.0184,-1.11588 c -0.0323,-1.96293 0.053,-6.18697 0.12534,-6.207 0.0356,-0.01 0.41656,-0.12773 0.84662,-0.26196 l 0.78192,-0.24404 0.0355,-0.3774 c 0.0195,-0.20758 0.0147,-0.49253 -0.0107,-0.63324 l -0.0461,-0.25584 -0.77269,-0.26217 c -0.42497,-0.14419 -0.80421,-0.28166 -0.84276,-0.30548 -0.0525,-0.0325 -0.0701,-0.43554 -0.0701,-1.60949 l 0,-1.56619 0.32904,-0.0412 c 0.18097,-0.0226 1.60724,-0.0273 3.16948,-0.0103 l 2.84043,0.0309 0.0345,-0.20844 c 0.0437,-0.26402 0.0448,-1.37048 0.002,-1.53151 l -0.0326,-0.12134 -11.96951,-0.0392 c -26.03015,-0.0852 -40.1464,-0.14885 -40.61041,-0.18322 l -0.48641,-0.036 -0.007,0.365 c -0.0105,0.53306 -0.19227,0.95681 -0.59531,1.38767 -0.91784,0.98116 -2.36537,1.0362 -3.27698,0.12459 -0.3288,-0.3288 -0.46143,-0.57527 -0.55577,-1.03282 -0.0389,-0.18884 -0.0939,-0.40433 -0.12222,-0.47886 -0.0512,-0.13503 -0.0524,-0.13462 -0.3221,0.11591 -0.24995,0.23218 -1.3212,1.12269 -1.55995,1.29676 -0.0906,0.0661 -0.21624,0.0168 -1.00938,-0.3953 -0.49825,-0.25891 -1.07329,-0.55701 -1.27787,-0.66245 -0.39284,-0.20248 -0.97497,-0.43662 -1.00668,-0.40491 -0.0103,0.0104 0.163,0.23657 0.3852,0.50273 0.2222,0.26615 0.52677,0.66438 0.67681,0.88494 1.2266,1.80311 1.6959,4.35482 1.22594,6.66586 -0.50633,2.48995 -2.23382,4.77159 -4.54307,6.0004 -0.66479,0.35375 -1.73159,0.71702 -2.46066,0.8379 -0.54458,0.0903 -1.94495,0.1539 -2.37482,0.10786 z m 2.19929,-3.39434 c 1.59163,-0.46471 2.97981,-1.64059 3.66278,-3.10262 0.86052,-1.84213 0.58392,-4.14017 -0.68929,-5.72662 -0.82188,-1.02409 -1.8099,-1.63475 -3.2201,-1.99023 l -0.62242,-0.15689 0.0102,-0.59559 c 0.006,-0.32757 -0.007,-0.6398 -0.0275,-0.69384 -0.0771,-0.201 -0.26937,-0.0982 -0.76256,0.40764 -0.57188,0.58658 -0.8033,0.69582 -1.47409,0.69582 -0.7534,0 -1.34864,-0.34711 -1.80436,-1.0522 -0.35982,-0.55671 -0.51936,-1.14305 -0.52336,-1.92348 -0.007,-1.45531 0.50565,-2.47249 1.49339,-2.96047 0.40049,-0.19785 0.47392,-0.21504 0.8968,-0.20994 0.62727,0.008 0.8188,0.10462 1.4129,0.71594 0.4777,0.49153 0.67115,0.60254 0.77033,0.44207 0.0227,-0.0367 0.0371,-0.32968 0.0319,-0.65101 -0.007,-0.40796 0.0122,-0.60211 0.0623,-0.64343 0.0394,-0.0326 0.23899,-0.10134 0.44357,-0.15287 0.59919,-0.15093 1.09161,-0.32104 1.45922,-0.50412 1.58061,-0.78715 2.72796,-2.34032 3.0071,-4.07074 0.10847,-0.67237 0.0437,-1.77933 -0.14016,-2.39728 -0.4463,-1.49964 -1.51122,-2.777 -2.89555,-3.4732 -2.84588,-1.43122 -6.2076,-0.23656 -7.61414,2.70586 -0.36466,0.76286 -0.47263,1.25719 -0.47125,2.1577 10e-4,0.64958 0.0252,0.86339 0.15201,1.34343 0.19266,0.72929 0.61586,1.59514 1.07662,2.20276 0.52019,0.68599 0.52302,0.69001 0.49852,0.70672 -0.073,0.0498 -0.86334,0.72632 -1.45217,1.24299 -0.37809,0.33176 -0.88842,0.76287 -1.13406,0.95802 l -0.44662,0.35482 -0.33831,-0.42054 c -0.62068,-0.77155 -1.49936,-1.35233 -2.34499,-1.54994 -0.54394,-0.12712 -1.48203,-0.11467 -2.03663,0.027 -2.53524,0.64773 -3.92183,3.35722 -2.88654,5.64051 0.74404,1.64095 2.52727,2.75017 4.24263,2.63903 1.01293,-0.0656 1.80093,-0.47335 2.78727,-1.4422 l 0.6475,-0.63601 1.48387,1.30783 1.48387,1.30784 -0.28526,0.34276 c -1.07387,1.29039 -1.52834,2.49872 -1.47244,3.91486 0.034,0.86138 0.18615,1.47412 0.55413,2.23176 0.77031,1.58599 2.1774,2.7086 3.8659,3.0843 0.59616,0.13265 2.02693,0.0905 2.59897,-0.0765 z"
       id="path11264-4"
       inkscape:connector-curvature="0" />
  </g>
</svg>
